<?xml version="1.0" encoding="utf-8"?>
<!-- Generator: Adobe Illustrator 16.0.0, SVG Export Plug-In . SVG Version: 6.00 Build 0)  -->
<!DOCTYPE svg PUBLIC "-//W3C//DTD SVG 1.1//EN" "http://www.w3.org/Graphics/SVG/1.1/DTD/svg11.dtd">
<svg version="1.1" id="Layer_1" xmlns="http://www.w3.org/2000/svg" xmlns:xlink="http://www.w3.org/1999/xlink" x="0px" y="0px"
	 width="367px" height="120px" viewBox="70 98 367 124" enable-background="new 0 0 500 318" xml:space="preserve">
<g>
	<path fill-rule="evenodd" clip-rule="evenodd" fill="#1F2C5C" d="M176.598,150.476c-11.586-15.857-23.323-31.609-35.117-47.313
		c-1.869-2.491-4.601-5.473-7.783-3.781c-2.154,1.14-4.112,4.531-4.332,7.076c-0.725,8.339-0.666,16.749-0.752,25.133
		c-0.008,0.951,0.901,1.984,1.549,2.858c4.905,6.642,9.894,13.219,14.768,19.88c1.357,1.854,2.121,3.357,2.361,4.804
		c-0.24,2.014-1.004,3.027-2.361,4.882c-4.874,6.661-9.862,13.275-14.768,19.916c-0.647,0.875-1.557,1.942-1.549,2.895
		c0.086,8.384,0.027,16.789,0.752,25.128c0.22,2.545,2.178,5.927,4.332,7.066c3.183,1.691,5.914-1.309,7.783-3.8
		c11.794-15.704,23.531-31.495,35.117-47.354c2.059-2.816,3.154-4.706,3.355-8.732C179.752,156.205,178.656,153.294,176.598,150.476
		z"/>
	<path fill-rule="evenodd" clip-rule="evenodd" fill="#1A8ACB" d="M69.552,150.476c11.587-15.857,23.323-31.609,35.117-47.313
		c1.87-2.491,4.601-5.473,7.784-3.781c2.153,1.14,4.111,4.531,4.332,7.076c0.723,8.339,0.666,16.749,0.75,25.133
		c0.008,0.951-0.9,1.984-1.547,2.858c-4.905,6.642-9.895,13.219-14.768,19.88c-1.357,1.854-2.122,3.357-2.361,4.804
		c0.239,2.014,1.004,3.027,2.361,4.882c4.873,6.661,9.862,13.275,14.768,19.916c0.646,0.875,1.555,1.942,1.547,2.895
		c-0.084,8.384-0.027,16.789-0.75,25.128c-0.221,2.545-2.179,5.927-4.332,7.066c-3.184,1.691-5.914-1.309-7.784-3.8
		c-11.794-15.704-23.53-31.495-35.117-47.354c-2.06-2.816-3.153-4.706-3.354-8.732C66.398,156.205,67.492,153.294,69.552,150.476z"
		/>
	<path fill-rule="evenodd" clip-rule="evenodd" fill="#1F2C5C" d="M276.23,112.717c15.473,0.591,30.891,0.199,46.033,2.046
		c13.785,1.682,20.209,12.316,19.428,28.014c-0.66,13.321-8.98,21.915-23.133,23.332c-7.48,0.747-15.025,0.816-23.258,1.228
		c0,5.478,0,11.104,0,16.731c0,5.513,0,11.026,0,16.795c-6.537,0-12.598,0-19.07,0C276.23,171.931,276.23,142.987,276.23,112.717z
		 M295.602,129.124c0,7.601,0,14.206,0,21.465c6.23-0.325,12.217-0.148,18.029-1.079c5.639-0.899,8.131-4.638,7.986-9.906
		c-0.131-4.798-3.07-8.466-8.404-9.217C307.506,129.583,301.693,129.527,295.602,129.124z"/>
	<path fill-rule="evenodd" clip-rule="evenodd" fill="#1F2C5C" d="M202.858,200.983c5.495,0,13.356,0.124,19.315,0.124
		c0-11.604,0-22.64,0-34.136c12.344,0,24.222,0,36.344,0c0-6.203,0-11.926,0-18.19c-12.197,0-24.081,0-36.104,0
		c0-6.146,0-11.746,0-17.758c13.215,0,26.107,0,39.318,0c0-6.221,0-11.716,0-17.431c-19.623,0-39.014,0-58.874,0
		c0,2.139,0,3.96,0,5.782c0,23.62-0.002,47.235,0,70.854V200.983z"/>
	<path fill-rule="evenodd" clip-rule="evenodd" fill="#1F2C5C" d="M401.502,155.153c9.298-13.65,18.542-27.219,28.248-41.464
		c-7.869,0-14.812-0.099-21.747,0.104c-1.069,0.031-2.441,1.231-3.09,2.259c-2.87,4.575-5.53,9.284-8.266,13.943
		c-2.562,4.362-5.128,8.738-7.951,13.545c-2.014-4.807-5.264-9.183-7.826-13.545c-2.734-4.659-5.269-9.368-8.141-13.943
		c-0.646-1.027-2.019-2.228-3.088-2.259c-6.936-0.203-13.878-0.104-21.747-0.104c9.705,14.245,18.948,27.813,28.246,41.464
		c-10.479,15.296-20.851,30.408-31.755,46.319c8.385,0,15.95,0.105,23.523-0.133c0.959-0.032,2.023-1.759,2.727-2.904
		c5.735-9.328,11.324-18.709,17.015-28.067c0.363-0.596,1.046-1.185,1.046-1.834c0.427,0.649,0.808,1.238,1.172,1.834
		c5.69,9.358,11.341,18.739,17.077,28.067c0.704,1.146,1.799,2.872,2.758,2.904c7.572,0.238,15.154,0.133,23.538,0.133
		C422.338,185.562,411.982,170.449,401.502,155.153z"/>
</g>
</svg>
