<svg width="79" height="79" viewBox="0 0 79 79" fill="none" xmlns="http://www.w3.org/2000/svg">
<g filter="url(#filter0_d_1207_102)">
<circle cx="39.4712" cy="28.4712" r="18.4712" fill="#2D9FFF"/>
</g>
<g clip-path="url(#clip0_1207_102)">
<path d="M38.8896 37.8737C38.0692 37.6758 37.235 37.5225 36.4316 37.2695C35.2827 36.908 34.2868 36.2542 33.3856 35.4538C32.8266 34.9582 32.7393 34.4042 33.1469 33.9377C33.5477 33.479 34.1096 33.4944 34.6722 33.98C38.6529 37.415 44.6168 36.0288 46.4919 31.1711C47.632 28.2173 47.0851 25.4679 44.8791 23.2119C42.64 20.9231 39.8766 20.3392 36.9123 21.5106C34.0527 22.6405 32.5067 24.8757 32.2409 27.9776C32.2297 28.1084 32.2394 28.2411 32.2394 28.4272C32.5106 28.4272 32.7466 28.4059 32.9773 28.4321C33.3934 28.4791 33.6072 28.8685 33.3742 29.2158C32.8123 30.0509 32.2304 30.8738 31.6223 31.6753C31.3793 31.9949 31.039 31.9586 30.8023 31.6378C30.2256 30.8542 29.6584 30.0641 29.1154 29.2572C28.8469 28.8582 29.0668 28.4671 29.5509 28.4287C29.7677 28.4115 29.9869 28.4257 30.1357 28.4257C30.3376 27.4185 30.4453 26.4421 30.7323 25.5247C32.0255 21.3893 35.9649 18.6901 40.2234 19.0278C44.8198 19.3927 48.2852 22.7103 48.8904 27.1584C48.9062 27.2747 48.9519 27.3866 48.9837 27.5013V29.35C48.9519 29.4636 48.9084 29.5753 48.8899 29.6911C48.3346 33.1849 46.4642 35.686 43.2434 37.0856C42.3259 37.484 41.2957 37.619 40.317 37.8746L38.8896 37.8737Z" fill="white"/>
<path d="M40.2127 32.7009C40.1398 33.2396 40.3619 33.9324 39.5458 34.0576C39.0947 34.1266 38.9309 33.8289 38.7866 32.7927C38.3248 32.7016 37.8577 32.6301 37.4013 32.513C36.8197 32.3639 36.5552 31.9551 36.6841 31.471C36.8226 30.9501 37.2292 30.7963 37.8591 30.9224C38.4203 31.0359 38.991 31.0956 39.5633 31.1007C40.0069 31.1031 40.4161 30.8972 40.5046 30.3973C40.5945 29.8882 40.2404 29.6137 39.844 29.416C39.557 29.272 39.2469 29.1753 38.9531 29.0438C38.5358 28.8572 38.098 28.7009 37.7136 28.4573C36.1756 27.485 36.2225 25.4289 37.7994 24.5132C38.1316 24.3202 38.5073 24.2032 38.8913 24.0388C38.938 23.5436 38.7761 22.8859 39.5602 22.785C39.9899 22.7296 40.1461 22.9975 40.3109 23.9587C40.6879 24.0266 41.0745 24.0709 41.4474 24.1694C41.9478 24.3014 42.1799 24.7218 42.0494 25.1852C41.9305 25.6072 41.5293 25.7923 41.0344 25.7117C40.5522 25.6334 40.0608 25.5648 39.5745 25.5719C39.1752 25.5768 38.7863 25.7316 38.6996 26.2042C38.6194 26.6411 38.9288 26.8706 39.2559 27.0271C39.9121 27.3418 40.6045 27.5869 41.2488 27.9234C42.3772 28.5111 42.8152 29.4538 42.5612 30.6396C42.3911 31.4311 41.9021 31.9767 41.1956 32.3242C40.8952 32.4726 40.5676 32.5671 40.2127 32.7009Z" fill="white"/>
</g>
<defs>
<filter id="filter0_d_1207_102" x="0" y="0" width="78.9424" height="78.9424" filterUnits="userSpaceOnUse" color-interpolation-filters="sRGB">
<feFlood flood-opacity="0" result="BackgroundImageFix"/>
<feColorMatrix in="SourceAlpha" type="matrix" values="0 0 0 0 0 0 0 0 0 0 0 0 0 0 0 0 0 0 127 0" result="hardAlpha"/>
<feOffset dy="11"/>
<feGaussianBlur stdDeviation="10.5"/>
<feComposite in2="hardAlpha" operator="out"/>
<feColorMatrix type="matrix" values="0 0 0 0 0.133333 0 0 0 0 0.439216 0 0 0 0 0.694118 0 0 0 0.17 0"/>
<feBlend mode="normal" in2="BackgroundImageFix" result="effect1_dropShadow_1207_102"/>
<feBlend mode="normal" in="SourceGraphic" in2="effect1_dropShadow_1207_102" result="shape"/>
</filter>
<clipPath id="clip0_1207_102">
<rect width="19.9843" height="18.874" fill="white" transform="translate(29 19)"/>
</clipPath>
</defs>
</svg>