<?xml version="1.0" encoding="utf-8"?>
<!-- Generator: Adobe Illustrator 24.1.3, SVG Export Plug-In . SVG Version: 6.00 Build 0)  -->
<svg version="1.1" id="Layer_1" xmlns="http://www.w3.org/2000/svg" xmlns:xlink="http://www.w3.org/1999/xlink" x="0px" y="0px"
	 viewBox="0 0 505 600" style="enable-background:new 0 0 505 600;" xml:space="preserve">
<style type="text/css">
	.st0{fill-rule:evenodd;clip-rule:evenodd;fill:#0466B4;}
	.st1{fill-rule:evenodd;clip-rule:evenodd;fill:#2C2C2B;}
</style>
<desc>Created with Sketch.</desc>
<g id="DSG-181">
	<g id="Artboard" transform="translate(-97.000000, -59.000000)">
		<g id="Multibanco_logo_150_68" transform="translate(97.000000, 59.000000)">
			<path id="Fill-2" class="st0" d="M103.8,0h318.7c22.4,0,40.7,19.5,40.7,43.3v20.7c0,29.3-39.4,29.2-39.4,0.2V52.9
				c0-7.2-5.9-13.1-13-13.1H91.4c-7.2,0-13,5.9-13,13.1V64c0,29.1-37.6,28.9-37.6,0.6V43.3C40.8,19.5,59.1,0,81.5,0H103.8z
				 M249.9,483.5h206.7c47.2,0,47.7-50.5,42.9-75.4c-2.6-16.8-30.9-16.6-34,0v19.4c0,8.9-7.2,16.2-16.1,16.2H53.1
				c-8.8,0-16.1-7.3-16.1-16.2v-19.4c-3.1-16.6-31.4-16.8-34,0c-4.8,24.9-4.3,75.4,42.9,75.4H249.9z"/>
			<path id="Fill-3" class="st1" d="M377.7,222h33v-0.4c15-2.3,26.6-15.4,26.6-31.2c0-17.3-14.1-31.5-31.3-31.5h-66.4v164.9h84.2
				c17.8,0,32.4-14.7,32.4-32.6c0-17.9-14.6-32.6-32.4-32.6h-13v-0.1h-33c-10,0-18.2-8.2-18.2-18.3C359.5,230.2,367.7,222,377.7,222
				z M455.2,238.2c11.4-12,18.5-28.2,18.5-46c0-36.6-29.8-66.5-66.2-66.5H321c-9.5,0-17.3,7.8-17.3,17.4v198.7
				c0,9.1,7.9,16.6,17.7,16.6h103.8c37,0,67.3-28.6,67.3-63.5C492.5,270.2,477.2,248.6,455.2,238.2z"/>
			<path id="Fill-4" class="st1" d="M117,544.5c0-3.1,2.5-5.6,5.6-5.6c3.1,0,5.6,2.5,5.6,5.6v30.3h0c0,6.9-2.8,13.2-7.3,17.8
				c-4.5,4.5-10.8,7.4-17.6,7.4v0h0v0c-6.9,0-13.1-2.8-17.7-7.4c-4.5-4.5-7.3-10.8-7.3-17.8h0v-30.3c0-3.1,2.5-5.6,5.6-5.6
				c3.1,0,5.6,2.5,5.6,5.6v30.3h0c0,3.8,1.6,7.3,4.1,9.9c2.5,2.5,6,4.1,9.8,4.1v0h0v0c3.8,0,7.3-1.6,9.8-4.1c2.5-2.5,4.1-6,4.1-9.8
				h0V544.5z"/>
			<path id="Fill-5" class="st1" d="M169.6,588.8c3.1,0,5.6,2.5,5.6,5.6s-2.5,5.6-5.6,5.6h-15.4v0c-5.8,0-11-2.4-14.8-6.2
				c-3.8-3.8-6.1-9-6.1-14.8h0v-34.4c0-3.1,2.5-5.6,5.6-5.6c3.1,0,5.6,2.5,5.6,5.6v34.4h0c0,2.7,1.1,5.2,2.9,7
				c1.8,1.8,4.2,2.9,6.9,2.9v0H169.6z"/>
			<path id="Fill-6" class="st1" d="M287.2,338.6c1.2,11.5-7.1,21.8-18.5,23.1s-21.7-7.1-22.9-18.6l-17.1-158l-60.4,154.5l-0.1,0.1
				v0l-0.2,0.4l-0.1,0.3l0,0.1l-0.1,0.3l-0.1,0.2l-0.2,0.3l-0.1,0.1l-0.2,0.3l-0.1,0.1c-1.1,2.1-2.5,4-4.2,5.5l0,0.1l-0.3,0.3
				c-1.1,1-2.3,1.8-3.6,2.6l-0.1,0l-0.4,0.2l0,0l-0.4,0.2l-0.2,0.1l-0.2,0.1l-0.2,0.1l-0.2,0.1l-0.3,0.1l-0.2,0.1l-0.2,0.1l-0.2,0.1
				l-0.1,0l-0.2,0.1l-0.3,0.1l-0.2,0c-2,0.7-4.1,1.1-6.1,1.2l-0.3,0h-1l-0.3,0c-2.3-0.1-4.6-0.5-6.8-1.4l-0.3-0.1l-0.1,0l-0.3-0.1
				l-0.3-0.1l-0.2-0.1l-0.5-0.2l-0.1-0.1l-0.4-0.2l0,0l-0.3-0.2l-0.2-0.1c-1.1-0.6-2.2-1.4-3.2-2.2l-0.1-0.1
				c-0.2-0.2-0.5-0.4-0.7-0.6l0,0c-0.2-0.2-0.3-0.3-0.5-0.5c-0.2-0.2-0.3-0.3-0.5-0.5l0,0c-0.2-0.2-0.4-0.4-0.6-0.7l-0.1-0.1
				c-0.8-1-1.6-2-2.2-3.2l-0.1-0.2l-0.2-0.3l0,0l-0.2-0.4l-0.1-0.1L130,341l-0.1-0.2l-0.1-0.2l-0.1-0.3l-0.1-0.3l0-0.1l-0.1-0.3
				L68.9,185L51.8,343c-1.2,11.5-11.5,19.8-22.9,18.6c-11.4-1.2-19.7-11.6-18.5-23.1l20.1-186.3v0l0-0.1h0c0.2-2.2,0.7-4.3,1.4-6.4
				c0.6-2.1,1.5-4.1,2.5-6.1c5.1-9.7,14.6-16.5,25.9-18.1h0c0.4,0,0.8-0.1,1.1-0.1c1.8-0.2,3.5-0.2,5.2-0.2l0.1,0v0
				c2.3,0.1,4.4,0.4,6.3,0.9c10.8,2.5,19.9,10.1,24.2,21.1l51.5,131.6l51.5-131.6c4.3-11,13.4-18.5,24.2-21.1c1.9-0.4,4-0.7,6.3-0.9
				v0l0.1,0c1.7-0.1,3.5,0,5.3,0.2c0.4,0,0.7,0.1,1.1,0.1h0c11.3,1.6,20.7,8.4,25.9,18.1c1.1,2,1.9,4,2.5,6.1
				c0.7,2.1,1.1,4.3,1.4,6.4h0l0,0.1v0L287.2,338.6z"/>
			<path id="Fill-7" class="st1" d="M76,593.7c0.4,3.1-1.8,5.8-4.9,6.2c-3,0.4-5.8-1.8-6.2-4.9l-4.8-40.3l-17,39.7
				c-1.2,2.8-4.5,4.2-7.3,2.9c-1.4-0.6-2.4-1.7-2.9-2.9l-17-39.7l-4.8,40.3c-0.4,3.1-3.1,5.2-6.2,4.9c-3-0.4-5.2-3.1-4.9-6.2
				l5.5-46.8c0.4-3.1,2.2-5.6,4.9-7c0.4-0.2,0.7-0.3,1.1-0.5c0.1,0,0.3-0.1,0.4-0.1c0.5-0.1,1-0.3,1.7-0.4h0l0.1,0
				c2.9-0.4,5.8,0.6,7.8,2.5c0.4,0.4,0.8,0.8,1.1,1.3c0.2,0.3,0.5,0.7,0.7,1.1c0.1,0.2,0.2,0.4,0.3,0.6l14.4,33.7l14.4-33.7
				c1.2-2.8,3.7-4.7,6.5-5.3c0.6-0.1,1.1-0.2,1.6-0.2c0.4,0,0.8,0,1.2,0h0c0.1,0,0.3,0,0.4,0h0v0h0c3,0.4,5.5,2.1,6.9,4.5
				c0.3,0.5,0.5,1,0.7,1.6c0.1,0.4,0.2,0.7,0.3,1.1c0,0.2,0.1,0.5,0.1,0.7v0L76,593.7z"/>
			<path id="Fill-8" class="st1" d="M193.9,594.4c0,3.1-2.5,5.6-5.6,5.6c-3.1,0-5.6-2.5-5.6-5.6v-44.3h-15.8c-3.1,0-5.6-2.5-5.6-5.6
				s2.5-5.6,5.6-5.6h42.8c3.1,0,5.6,2.5,5.6,5.6s-2.5,5.6-5.6,5.6h-15.8V594.4z"/>
			<path id="Fill-9" class="st1" d="M228.6,594.4c0,3.1-2.5,5.6-5.6,5.6c-3.1,0-5.6-2.5-5.6-5.6v-49.9c0-3.1,2.5-5.6,5.6-5.6
				c3.1,0,5.6,2.5,5.6,5.6V594.4z"/>
			<path id="Fill-10" class="st1" d="M342.8,593.7c0.4,3.1-1.8,5.9-4.8,6.2c-3,0.4-5.8-1.8-6.2-4.9l-2-15.8h-19.3
				c-3.1,0-5.6-2.5-5.6-5.6c0-3.1,2.5-5.6,5.6-5.6h17.9l-0.5-4.1v0c0-0.1,0-0.3,0-0.4c-0.1-0.9-0.4-1.9-0.6-2.8
				c-0.3-1.1-0.7-2.1-1.2-3c-2.2-4.4-6.2-7.5-11.3-7.5h0v0c-1,0-1.9,0.1-2.8,0.3c-0.8,0.2-1.7,0.5-2.5,1c-4.3,2.2-7.1,7-7.7,12.5
				l-3.5,31.1c-0.3,3.1-3.1,5.3-6.1,4.9c-3.1-0.3-5.2-3.1-4.9-6.2l3.5-31.1c1-9.2,6.1-17.3,13.7-21.2c1.5-0.8,3.2-1.4,4.9-1.8
				c1.7-0.4,3.5-0.6,5.4-0.6v0h0c9.7,0,17.1,5.7,21.2,13.8c0.8,1.5,1.4,3.1,1.9,4.8c0.4,1.4,0.8,2.9,1,4.5c0,0.2,0.1,0.4,0.1,0.5v0
				L342.8,593.7z"/>
			<path id="Fill-11" class="st1" d="M359.8,594.4c0,3.1-2.5,5.6-5.6,5.6s-5.6-2.5-5.6-5.6v-46.3c0-0.3,0-0.6,0.1-0.9
				c0.1-0.6,0.2-1.2,0.4-1.8l0,0h0c0.1-0.3,0.3-0.6,0.5-1l0,0l0,0c0.9-1.7,2.5-3,4.4-3.7c0.2-0.1,0.5-0.2,0.8-0.2
				c0.2,0,0.4-0.1,0.6-0.1h0v0c0.4-0.1,0.8-0.1,1.3-0.1h0.1c2.3,0.1,4.4,1.2,5.9,3l29.6,38v-36.7c0-3.1,2.5-5.6,5.6-5.6
				s5.6,2.5,5.6,5.6v46.1c0,2.4-1.1,4.6-2.9,6.1c-0.3,0.3-0.7,0.5-1.1,0.8c-0.2,0.1-0.4,0.2-0.7,0.3l-0.1,0
				c-0.2,0.1-0.3,0.1-0.5,0.2l0,0v0h0l0,0c-2,0.7-4.1,0.5-6-0.3c-0.3-0.1-0.5-0.2-0.7-0.4c-0.4-0.2-0.8-0.5-1.1-0.8
				c-0.2-0.2-0.5-0.5-0.7-0.8l-0.2-0.2l0,0l-0.1-0.1l-29.6-38V594.4z"/>
			<path id="Fill-12" class="st1" d="M446.7,588.8c3.1,0,5.6,2.5,5.6,5.6s-2.5,5.6-5.6,5.6h-16.4v0c-6,0-11.5-2.5-15.5-6.5
				c-4-4-6.4-9.5-6.4-15.6h0V561h0c0-6.1,2.5-11.6,6.4-15.6c4-4,9.4-6.5,15.5-6.5v0h16.4c3.1,0,5.6,2.5,5.6,5.6s-2.5,5.6-5.6,5.6
				h-16.4v0c-3,0-5.7,1.2-7.7,3.2c-2,2-3.2,4.7-3.2,7.7h0v16.9h0c0,3,1.2,5.7,3.2,7.7c2,2,4.7,3.2,7.6,3.2v0H446.7z"/>
			<path id="Fill-13" class="st1" d="M478.9,538.9L478.9,538.9L478.9,538.9c7.1,0,13.6,2.8,18.2,7.4c4.7,4.6,7.7,10.9,7.7,17.9h0
				v10.5h0c0,7-2.9,13.4-7.7,17.9c-4.7,4.5-11.1,7.3-18.2,7.3v0h0v0c-7.1,0-13.6-2.8-18.2-7.3c-4.7-4.6-7.7-10.9-7.7-17.9h0v-10.5h0
				c0-7,2.9-13.4,7.7-17.9C465.4,541.8,471.8,539,478.9,538.9L478.9,538.9L478.9,538.9z M479,550.1L479,550.1L479,550.1L479,550.1
				c-4.1,0-7.9,1.6-10.6,4.2c-2.6,2.6-4.3,6.1-4.3,9.9h0v10.5h0c0,3.8,1.6,7.3,4.3,9.9c2.7,2.6,6.4,4.2,10.6,4.2v0h0v0
				c4.1,0,7.8-1.6,10.5-4.2c2.6-2.6,4.3-6.1,4.3-9.9h0v-10.5h0c0-3.8-1.6-7.3-4.3-9.9C486.8,551.7,483.1,550.1,479,550.1z"/>
			<path id="Fill-14" class="st1" d="M233.3,569.1v-24.3c0-0.8,0.2-1.5,0.4-2.2c0.3-0.7,0.7-1.4,1.3-1.9l0.1-0.1
				c0.9-0.9,2.2-1.5,3.7-1.6c0.1,0,0.2,0,0.3,0v0h21.5v0c4.9,0,9.3,2,12.5,5.3c3.2,3.2,5.2,7.7,5.2,12.6h0v0h0c0,3.5-1,6.8-2.7,9.5
				c1.2,0.7,2.2,1.6,3.2,2.5c0.1,0.1,0.2,0.3,0.3,0.4c3.1,3.3,4.9,7.6,4.9,12.5h0v0h0c0,5-2,9.6-5.3,12.9c-3.3,3.3-7.8,5.3-12.8,5.3
				v0h-27.1c-3.1,0-5.6-2.5-5.6-5.6V569.1z M244.4,550.1v38.6h21.5v0c1.9,0,3.7-0.8,4.9-2.1c1.3-1.3,2-3,2-5h0v0h0
				c0-1.8-0.7-3.5-1.9-4.7l-0.2-0.2c-1.3-1.3-3-2.1-4.9-2.1v0h-7.4c-3.1,0-5.6-2.5-5.6-5.6c0-3.1,2.5-5.6,5.6-5.6h2.5
				c1.6-0.1,3.1-0.9,4.2-2h0c1.2-1.2,2-2.9,2-4.7h0v0h0c0-1.8-0.8-3.5-2-4.7c-1.2-1.2-2.9-2-4.7-2v0H244.4z"/>
		</g>
	</g>
</g>
</svg>
