<?xml version="1.0" encoding="UTF-8"?> <svg xmlns="http://www.w3.org/2000/svg" xmlns:xlink="http://www.w3.org/1999/xlink" version="1.1" id="Layer_1" x="0px" y="0px" viewBox="0 0 188.2 52.2" style="enable-background:new 0 0 188.2 52.2;" xml:space="preserve"> <style type="text/css"> .st0{clip-path:url(#SVGID_00000008869255777402944560000014433860400907228806_);} .st1{fill:#535352;} .st2{fill:#E40038;} .st3{fill:#6F7175;} .st4{fill:#FF0000;} .st5{fill:#FFFFFF;} </style> <g id="Group_20348" transform="translate(-39 -15.592)"> <g id="Group_2803" transform="translate(39 38.602)"> <g id="Group_20127" transform="translate(0 -5.205)"> <g> <defs> <rect id="SVGID_1_" y="1" width="188.2" height="33.4"></rect> </defs> <clipPath id="SVGID_00000013189269767957697570000004865692026888556437_"> <use xlink:href="#SVGID_1_" style="overflow:visible;"></use> </clipPath> <g id="Group_20126" transform="translate(0 1)" style="clip-path:url(#SVGID_00000013189269767957697570000004865692026888556437_);"> <path id="Path_19209" class="st1" d="M0.7,25.6c0.2-0.3,0.6-0.3,0.9-0.1l0,0c1.8,1.9,4.4,3,7,3c4.9,0,6.3-2.7,6.3-4.8 c0-3.4-3.2-4.3-6.6-5.2c-3.8-1-7.8-2.1-7.8-6.6c0-3.9,3.5-6.4,7.9-6.4c2.9-0.1,5.7,1,7.7,3c0.2,0.2,0.2,0.6,0,0.8L15.7,10 c-0.2,0.2-0.6,0.3-0.9,0c0,0,0,0,0,0l0,0l0,0c-1.7-1.7-4-2.6-6.4-2.5c-3.2,0-5.6,1.8-5.6,4.4c0,2.8,3,3.7,6.3,4.6 c3.9,1.1,8.1,2.3,8.1,7.2c0,3.1-2.1,6.8-8.5,6.8c-3.2,0.1-6.2-1.1-8.4-3.4c-0.2-0.2-0.2-0.6,0-0.8L0.7,25.6z"></path> <path id="Path_19210" class="st1" d="M130.3,5.9h0.8c0.3,0,0.6,0.3,0.6,0.6v21.5h11c0.3,0,0.6,0.3,0.6,0.6c0,0,0,0,0,0v0.6 c0,0.3-0.3,0.6-0.6,0.6l0,0h-12.4c-0.3,0-0.6-0.3-0.6-0.6c0,0,0,0,0,0V6.6C129.7,6.2,129.9,5.9,130.3,5.9L130.3,5.9"></path> <path id="Path_19211" class="st1" d="M156.8,5.9h0.8c0.3,0,0.6,0.3,0.6,0.6v22.8c0,0.3-0.3,0.6-0.6,0.6h-0.8 c-0.3,0-0.6-0.3-0.6-0.6c0,0,0,0,0,0V6.6C156.2,6.2,156.5,5.9,156.8,5.9L156.8,5.9"></path> <path id="Path_19212" class="st1" d="M171.7,25.6c0.2-0.3,0.6-0.3,0.9-0.1l0,0c1.8,1.9,4.4,3,7,3c4.9,0,6.3-2.7,6.3-4.8 c0-3.4-3.2-4.3-6.6-5.2c-3.8-1-7.8-2.1-7.8-6.6c0-3.9,3.5-6.4,7.9-6.4c2.9-0.1,5.7,1,7.7,3c0.2,0.2,0.2,0.6,0,0.8l-0.5,0.6 c-0.2,0.2-0.6,0.3-0.9,0l0,0l0,0c-1.7-1.7-4-2.6-6.4-2.5c-3.2,0-5.6,1.8-5.6,4.4c0,2.8,3,3.7,6.3,4.6c3.9,1.1,8.1,2.3,8.1,7.2 c0,3.1-2.1,6.8-8.5,6.8c-3.2,0.1-6.2-1.1-8.4-3.4c-0.2-0.2-0.2-0.6,0-0.8L171.7,25.6z"></path> <path id="Path_19213" class="st2" d="M38.7,17.4c0.2-3.3-4.5-4.2-12.3-13.6C24.7,2,27.9-0.1,29.3,0c0.3,0,0.6,0.2,0.8,0.4 c0,0,9.8,11.7,12.1,15.5c0.2,0.2,0.3,0.5,0.3,0.8c0,4-1.9,15.9-1.9,15.9c0,0.5-0.4,0.9-0.9,0.9h0.1c-0.5,0-0.9-0.4-0.9-0.9l0,0 C38.5,23.2,38.5,20.6,38.7,17.4"></path> <path id="Path_19214" class="st1" d="M43.2,13.7l5.6-9.5c0.1-0.2,0.3-0.3,0.5-0.3h1.4c0.3,0,0.6,0.2,0.6,0.6 c0,0.1,0,0.3-0.1,0.4l-7,9.8C43.9,15,42.8,14.2,43.2,13.7"></path> <path id="Path_19215" class="st1" d="M104.4,5.5C97.5,5.5,92,11.1,92,18c0,6.9,5.6,12.4,12.4,12.4s12.4-5.6,12.4-12.4 c0,0,0,0,0,0v0C116.8,11.1,111.3,5.6,104.4,5.5 M104.4,28.3C98.7,28.3,94,23.7,94,18c0-5.7,4.6-10.4,10.4-10.4 c5.7,0,10.4,4.6,10.4,10.4v0C114.8,23.7,110.1,28.3,104.4,28.3"></path> <path id="Path_19216" class="st1" d="M62,9.2v20.1c0,0.3-0.3,0.6-0.6,0.6l0,0h-0.8c-0.3,0-0.6-0.3-0.6-0.6c0,0,0,0,0,0V6.6 c0-0.3,0.3-0.6,0.6-0.6l0,0h1.2c0.2,0,0.4,0.1,0.5,0.3l14.9,20.2V6.6c0-0.3,0.3-0.6,0.6-0.6h0.8c0.3,0,0.6,0.3,0.6,0.6v22.8 c0,0.3-0.3,0.6-0.6,0.6h-1.1c-0.2,0-0.4-0.1-0.5-0.3L62,9.2z"></path> </g> </g> </g> </g> <g id="Group_2820" transform="translate(39 15.592)"> <path id="Path_14437" class="st3" d="M12.4,6.3c0.7,0.7,1.6,1.1,2.5,1c1.7,0,2.4-0.9,2.4-1.9c0-1.4-1.2-1.7-2.3-2 c-0.8-0.2-1.5-0.4-1.5-1c0-0.5,0.5-0.9,1.2-0.9c0.7,0,1.4,0.3,1.9,0.8l0.6-0.7c-0.6-0.6-1.5-0.9-2.3-0.9c-1.3,0-2.3,0.8-2.3,1.8 c0,1.3,1.2,1.6,2.2,1.9c0.8,0.2,1.5,0.4,1.5,1.1c0,0.5-0.4,1-1.4,1c-0.8,0-1.5-0.3-2-0.9L12.4,6.3z M22.4,7.2h0.9l1.5-4.6h-0.9 l-1.1,3.5l-1.2-3.5h-0.8l-1.2,3.5l-1.1-3.5h-0.9l1.5,4.6h0.9l1.1-3.6L22.4,7.2z M26,1.8c0.3,0,0.6-0.2,0.6-0.5c0,0,0,0,0,0 c0-0.3-0.3-0.6-0.6-0.6c-0.3,0-0.6,0.3-0.6,0.6C25.4,1.6,25.7,1.8,26,1.8L26,1.8z M25.6,7.2h0.9V2.6h-0.9V7.2z M27.4,6.6 c0.5,0.5,1.2,0.8,1.9,0.7c1.2,0,1.9-0.6,1.9-1.4c0-1.1-1-1.3-1.8-1.5c-0.6-0.1-1.1-0.3-1.1-0.7c0-0.4,0.4-0.6,1-0.6 c0.5,0,1,0.2,1.4,0.6l0.4-0.6c-0.5-0.4-1.1-0.7-1.8-0.7c-1.1,0-1.8,0.6-1.8,1.4c0,1,0.9,1.2,1.7,1.4c0.6,0.1,1.1,0.3,1.1,0.8 c0,0.4-0.3,0.7-1,0.7c-0.6,0-1.1-0.2-1.6-0.7L27.4,6.6z M31.9,6.6c0.5,0.5,1.2,0.8,1.9,0.7c1.2,0,1.9-0.6,1.9-1.4 c0-1.1-1-1.3-1.8-1.5c-0.6-0.1-1.1-0.3-1.1-0.7c0-0.4,0.4-0.6,1-0.6c0.5,0,1,0.2,1.4,0.6l0.4-0.6c-0.5-0.4-1.1-0.7-1.8-0.7 c-1.1,0-1.8,0.6-1.8,1.4c0,1,0.9,1.2,1.7,1.4c0.6,0.1,1.1,0.3,1.1,0.8c0,0.4-0.3,0.7-1,0.7c-0.6,0-1.1-0.2-1.6-0.7L31.9,6.6z M40.3,7.4V1.6H42V0.9h-4.2v0.8h1.7v5.7 M42,4.9c-0.1,1.3,0.9,2.4,2.2,2.4c0.1,0,0.1,0,0.2,0c0.7,0,1.4-0.2,1.9-0.7l-0.4-0.6 c-0.4,0.4-0.9,0.6-1.4,0.5c-0.8,0-1.5-0.6-1.6-1.4h3.7V5c0.1-1.3-0.8-2.4-2-2.5c-0.1,0-0.1,0-0.2,0C43,2.5,42,3.5,42,4.9 C42,4.9,42,4.9,42,4.9z M44.3,3.2c0.8,0,1.4,0.6,1.4,1.3c0,0,0,0,0,0.1h-2.8C42.9,3.8,43.5,3.2,44.3,3.2L44.3,3.2z M47.4,4.9 c-0.1,1.3,0.9,2.4,2.2,2.4c0.1,0,0.1,0,0.2,0c0.7,0,1.3-0.3,1.7-0.8L50.9,6c-0.3,0.4-0.7,0.6-1.1,0.6c-0.8,0-1.5-0.7-1.5-1.5 c0,0,0-0.1,0-0.1c-0.1-0.8,0.5-1.6,1.4-1.7c0,0,0.1,0,0.1,0c0.4,0,0.9,0.2,1.1,0.6l0.6-0.5c-0.4-0.5-1.1-0.9-1.7-0.8 c-1.3,0-2.3,1-2.4,2.3C47.4,4.8,47.4,4.9,47.4,4.9z M55.6,7.2h0.9V4c0.1-0.7-0.4-1.4-1.1-1.5c-0.1,0-0.2,0-0.4,0 c-0.6,0-1.2,0.3-1.6,0.8V0.8h-0.9v6.4h0.9V3.9c0.3-0.4,0.8-0.7,1.3-0.7c0.6,0,1,0.2,1,1L55.6,7.2z M60.9,7.2h0.9V4 c0.1-0.7-0.4-1.4-1.2-1.5c-0.1,0-0.2,0-0.3,0c-0.6,0-1.2,0.3-1.6,0.8V2.6h-0.9v4.6h0.9V3.9C59,3.5,59.4,3.3,60,3.3 c0.6,0,1,0.2,1,1L60.9,7.2z M65.2,7.4c1.3,0,2.3-1,2.4-2.2c0-0.1,0-0.1,0-0.2c0.1-1.3-0.9-2.4-2.2-2.4c-0.1,0-0.1,0-0.2,0 c-1.3,0-2.3,1-2.4,2.3c0,0.1,0,0.1,0,0.2c-0.1,1.3,0.9,2.4,2.2,2.4C65.1,7.4,65.2,7.4,65.2,7.4L65.2,7.4z M65.2,6.6 c-0.8,0-1.5-0.7-1.4-1.6c0,0,0-0.1,0-0.1c-0.1-0.8,0.5-1.6,1.3-1.7c0,0,0.1,0,0.1,0c0.8,0,1.5,0.7,1.5,1.6c0,0,0,0.1,0,0.1 c0.1,0.8-0.5,1.6-1.3,1.7C65.3,6.6,65.3,6.6,65.2,6.6L65.2,6.6z M68.7,7.2h0.9V0.8h-0.9V7.2z M73,7.4c1.3,0,2.3-1,2.4-2.2 c0-0.1,0-0.1,0-0.2c0.1-1.3-0.9-2.4-2.2-2.4c-0.1,0-0.1,0-0.2,0c-1.3,0-2.3,1-2.4,2.3c0,0.1,0,0.1,0,0.2c-0.1,1.3,0.9,2.4,2.2,2.4 C72.9,7.4,72.9,7.4,73,7.4L73,7.4z M73,6.6c-0.8,0-1.5-0.7-1.4-1.6c0,0,0-0.1,0-0.1c-0.1-0.8,0.5-1.6,1.3-1.7c0,0,0.1,0,0.1,0 c0.8,0,1.5,0.7,1.5,1.6c0,0,0,0.1,0,0.1c0.1,0.8-0.5,1.6-1.3,1.7C73.1,6.6,73,6.6,73,6.6L73,6.6z M76.4,8.4 c0.5,0.5,1.2,0.7,1.9,0.7c1.1,0,2.3-0.5,2.3-2.1V2.6h-0.9v0.7c-0.4-0.5-0.9-0.8-1.5-0.8c-1.2,0-2.1,1-2.1,2.1c0,0.1,0,0.2,0,0.3 c0,1.5,0.9,2.4,2.1,2.4c0.6,0,1.2-0.3,1.5-0.8v0.6c0,0.7-0.5,1.3-1.2,1.3c-0.1,0-0.1,0-0.2,0c-0.6,0-1.1-0.2-1.5-0.6L76.4,8.4z M79.8,5.8c-0.3,0.4-0.8,0.7-1.3,0.7C77.7,6.5,77,5.8,77,5c0-0.1,0-0.1,0-0.2c-0.1-0.8,0.5-1.5,1.2-1.6c0.1,0,0.1,0,0.2,0 c0.5,0,1,0.3,1.3,0.7V5.8z M81.9,8.3l-0.1,0.8c0.2,0,0.4,0.1,0.5,0.1c0.7,0,1.3-0.4,1.5-1l2.3-5.5h-0.9l-1.5,3.6l-1.5-3.6h-0.9 l1.9,4.7L83,7.9c-0.1,0.3-0.4,0.5-0.7,0.5C82.2,8.4,82,8.3,81.9,8.3z"></path> <rect id="Rectangle_1650" y="0" class="st4" width="8.1" height="8.1"></rect> <rect id="Rectangle_1651" x="3.2" y="1.6" class="st5" width="1.6" height="4.4"></rect> <rect id="Rectangle_1652" x="1.8" y="3.1" class="st5" width="4.4" height="1.6"></rect> </g> </g> </svg> 